<?xml version="1.0" encoding="UTF-8"?>
<svg xmlns="http://www.w3.org/2000/svg" xmlns:xlink="http://www.w3.org/1999/xlink" width="11pt" height="12pt" viewBox="0 0 11 12" version="1.1">
<g id="surface1">
<path style=" stroke:none;fill-rule:nonzero;fill:rgb(0%,0%,0%);fill-opacity:1;" d="M 4.675781 1.566406 L 5.222656 1.046875 C 5.453125 0.828125 5.828125 0.828125 6.054688 1.046875 L 10.828125 5.601562 C 11.058594 5.820312 11.058594 6.179688 10.828125 6.394531 L 6.054688 10.953125 C 5.824219 11.171875 5.449219 11.171875 5.222656 10.953125 L 4.675781 10.433594 C 4.445312 10.210938 4.449219 9.847656 4.6875 9.628906 L 7.644531 6.9375 L 0.589844 6.9375 C 0.261719 6.9375 0 6.6875 0 6.375 L 0 5.625 C 0 5.3125 0.261719 5.0625 0.589844 5.0625 L 7.644531 5.0625 L 4.6875 2.371094 C 4.445312 2.152344 4.441406 1.789062 4.675781 1.566406 Z M 4.675781 1.566406 "/>
</g>
</svg>
