<?xml version="1.0" encoding="UTF-8"?>
<svg xmlns="http://www.w3.org/2000/svg" xmlns:xlink="http://www.w3.org/1999/xlink" width="13pt" height="14pt" viewBox="0 0 13 14" version="1.1">
<g id="surface1">
<path style=" stroke:none;fill-rule:nonzero;fill:#fff;fill-opacity:1;" d="M 1 13 L 3.25 13 L 3.25 10.75 L 1 10.75 Z M 3.75 13 L 6.25 13 L 6.25 10.75 L 3.75 10.75 Z M 1 10.25 L 3.25 10.25 L 3.25 7.75 L 1 7.75 Z M 3.75 10.25 L 6.25 10.25 L 6.25 7.75 L 3.75 7.75 Z M 1 7.25 L 3.25 7.25 L 3.25 5 L 1 5 Z M 6.75 13 L 9.25 13 L 9.25 10.75 L 6.75 10.75 Z M 3.75 7.25 L 6.25 7.25 L 6.25 5 L 3.75 5 Z M 9.75 13 L 12 13 L 12 10.75 L 9.75 10.75 Z M 6.75 10.25 L 9.25 10.25 L 9.25 7.75 L 6.75 7.75 Z M 4 3.5 L 4 1.25 C 4 1.117188 3.882812 1 3.75 1 L 3.25 1 C 3.117188 1 3 1.117188 3 1.25 L 3 3.5 C 3 3.632812 3.117188 3.75 3.25 3.75 L 3.75 3.75 C 3.882812 3.75 4 3.632812 4 3.5 Z M 9.75 10.25 L 12 10.25 L 12 7.75 L 9.75 7.75 Z M 6.75 7.25 L 9.25 7.25 L 9.25 5 L 6.75 5 Z M 9.75 7.25 L 12 7.25 L 12 5 L 9.75 5 Z M 10 3.5 L 10 1.25 C 10 1.117188 9.882812 1 9.75 1 L 9.25 1 C 9.117188 1 9 1.117188 9 1.25 L 9 3.5 C 9 3.632812 9.117188 3.75 9.25 3.75 L 9.75 3.75 C 9.882812 3.75 10 3.632812 10 3.5 Z M 13 3 L 13 13 C 13 13.546875 12.546875 14 12 14 L 1 14 C 0.453125 14 0 13.546875 0 13 L 0 3 C 0 2.453125 0.453125 2 1 2 L 2 2 L 2 1.25 C 2 0.5625 2.5625 0 3.25 0 L 3.75 0 C 4.4375 0 5 0.5625 5 1.25 L 5 2 L 8 2 L 8 1.25 C 8 0.5625 8.5625 0 9.25 0 L 9.75 0 C 10.4375 0 11 0.5625 11 1.25 L 11 2 L 12 2 C 12.546875 2 13 2.453125 13 3 Z M 13 3 "/>
</g>
</svg>
