<?xml version="1.0" encoding="UTF-8"?>
<svg xmlns="http://www.w3.org/2000/svg" xmlns:xlink="http://www.w3.org/1999/xlink" width="13pt" height="15pt" viewBox="0 0 13 15" version="1.1">
<g id="surface1">
<path style=" stroke:none;fill-rule:nonzero;fill:rgb(0%,0%,0%);fill-opacity:1;" d="M 10.164062 6.5625 C 11.359375 6.90625 13 8.070312 13 11.878906 C 13 13.601562 11.703125 15 10.113281 15 L 2.886719 15 C 1.292969 15 0 13.601562 0 11.878906 C 0 8.070312 1.640625 6.90625 2.835938 6.5625 C 2.410156 5.902344 2.167969 5.121094 2.167969 4.285156 C 2.167969 1.925781 4.113281 0 6.5 0 C 8.886719 0 10.832031 1.925781 10.832031 4.285156 C 10.832031 5.121094 10.589844 5.902344 10.164062 6.5625 Z M 6.5 1.070312 C 4.707031 1.070312 3.25 2.511719 3.25 4.285156 C 3.25 6.058594 4.707031 7.5 6.5 7.5 C 8.292969 7.5 9.75 6.058594 9.75 4.285156 C 9.75 2.511719 8.292969 1.070312 6.5 1.070312 Z M 10.113281 13.929688 C 11.105469 13.929688 11.917969 13.015625 11.917969 11.878906 C 11.917969 9.242188 11.019531 7.59375 9.34375 7.507812 C 8.582031 8.167969 7.59375 8.570312 6.5 8.570312 C 5.40625 8.570312 4.417969 8.167969 3.65625 7.507812 C 1.980469 7.59375 1.082031 9.242188 1.082031 11.878906 C 1.082031 13.015625 1.894531 13.929688 2.886719 13.929688 Z M 10.113281 13.929688 "/>
</g>
</svg>
